<?xml version="1.0" encoding="utf-8"?>
<!-- Generator: Adobe Illustrator 18.0.0, SVG Export Plug-In . SVG Version: 6.00 Build 0)  -->
<!DOCTYPE svg PUBLIC "-//W3C//DTD SVG 1.1//EN" "http://www.w3.org/Graphics/SVG/1.1/DTD/svg11.dtd">
<svg version="1.1" id="Layer_1" xmlns="http://www.w3.org/2000/svg" xmlns:xlink="http://www.w3.org/1999/xlink" x="0px" y="0px"
	 viewBox="0 0 62.6 65.9" enable-background="new 0 0 62.6 65.9" xml:space="preserve">
<g id="pepinsbg_3_">
	<path fill="#ABC737" d="M45.2,36.1c4.2-2.1,6.8-4.7,7.7-7.7c1.1-3.6-0.3-7.6-4.3-12c-3.3-3.8-6.7-5.2-10.2-4.2
		c-2.9,0.8-5.6,3.2-8.1,7.2c-2.2,3.4-3.8,7.3-5,11.6c-1.1,4.1-1.4,7-0.8,8.8c1.7,0.6,4.6,0.6,8.7,0C37.8,39.1,41.8,37.8,45.2,36.1z"
		/>
	<path fill="#ABC737" d="M22,18.4c2.1-4.2,2.7-7.8,1.6-10.7c-1.3-3.6-4.8-6-10.6-7.2C8.1-0.6,4.6,0.3,2.4,3.1
		C0.5,5.5-0.2,9,0.1,13.7c0.3,4,1.2,8.2,2.9,12.3c1.5,4,3,6.5,4.6,7.6c1.7-0.5,4.1-2.3,7-5.2C17.8,25.2,20.3,21.8,22,18.4z"/>
	<path fill="#ABC737" d="M48.3,65.6c4.7,0.7,8.2,0.1,10.6-1.9c3-2.3,4.1-6.4,3.5-12.2c-0.5-5-2.5-8.1-5.9-9.3
		c-2.8-1-6.4-0.6-10.8,1.2C42,45,38.4,47.2,35,50c-3.3,2.7-5.2,4.9-5.7,6.7c1,1.5,3.4,3.2,7.1,5C40.5,63.8,44.5,65.1,48.3,65.6z"/>
</g>
<g id="pepinfg_3_">
	<path fill="#333333" d="M10.9,15.1c-1.7-0.4-3,0-3.7,0.9c-0.7,0.8-0.9,2.1-0.8,3.7c0.1,1.4,0.4,2.9,1,4.3c0.5,1.4,1.1,2.2,1.6,2.6
		c0.6-0.2,1.4-0.8,2.5-1.8c1.2-1.2,2-2.3,2.6-3.5c0.8-1.5,1-2.7,0.6-3.7C14.2,16.4,12.9,15.6,10.9,15.1z"/>
	<path fill="#333333" d="M38.2,27c-1.2-1.3-2.4-1.8-3.6-1.5c-1,0.3-2,1.1-2.9,2.5c-0.7,1.2-1.3,2.5-1.7,4.1
		c-0.4,1.4-0.5,2.4-0.3,3.1c0.6,0.2,1.6,0.2,3.1,0c1.6-0.2,3-0.7,4.2-1.3c1.5-0.7,2.4-1.6,2.7-2.7C40.1,29.9,39.6,28.5,38.2,27z"/>
	<path fill="#333333" d="M47.8,54.2c-0.2-1.8-0.9-2.9-2.1-3.3c-1-0.3-2.2-0.2-3.8,0.4c-1.3,0.5-2.6,1.3-3.8,2.3
		c-1.1,0.9-1.8,1.7-2,2.4c0.4,0.5,1.2,1.1,2.5,1.7c1.4,0.7,2.8,1.2,4.2,1.4c1.6,0.2,2.9,0,3.7-0.7C47.6,57.6,48.1,56.2,47.8,54.2z"
		/>
</g>
</svg>
