<svg xmlns="http://www.w3.org/2000/svg" xml:space="preserve" viewBox="0 0 62.6 65.9">
  <g fill="#ABC737">
    <path d="M45.2 36.1c4.2-2.1 6.8-4.7 7.7-7.7 1.1-3.6-.3-7.6-4.3-12-3.3-3.8-6.7-5.2-10.2-4.2-2.9.8-5.6 3.2-8.1 7.2-2.2 3.4-3.8 7.3-5 11.6-1.1 4.1-1.4 7-.8 8.8 1.7.6 4.6.6 8.7 0 4.6-.7 8.6-2 12-3.7zM22 18.4c2.1-4.2 2.7-7.8 1.6-10.7-1.3-3.6-4.8-6-10.6-7.2C8.1-.6 4.6.3 2.4 3.1.5 5.5-.2 9 .1 13.7c.3 4 1.2 8.2 2.9 12.3 1.5 4 3 6.5 4.6 7.6 1.7-.5 4.1-2.3 7-5.2 3.2-3.2 5.7-6.6 7.4-10zM48.3 65.6c4.7.7 8.2.1 10.6-1.9 3-2.3 4.1-6.4 3.5-12.2-.5-5-2.5-8.1-5.9-9.3-2.8-1-6.4-.6-10.8 1.2C42 45 38.4 47.2 35 50c-3.3 2.7-5.2 4.9-5.7 6.7 1 1.5 3.4 3.2 7.1 5 4.1 2.1 8.1 3.4 11.9 3.9z"/>
  </g>
  <g fill="#333">
    <path d="M10.9 15.1c-1.7-.4-3 0-3.7.9-.7.8-.9 2.1-.8 3.7.1 1.4.4 2.9 1 4.3.5 1.4 1.1 2.2 1.6 2.6.6-.2 1.4-.8 2.5-1.8 1.2-1.2 2-2.3 2.6-3.5.8-1.5 1-2.7.6-3.7-.5-1.2-1.8-2-3.8-2.5zM38.2 27c-1.2-1.3-2.4-1.8-3.6-1.5-1 .3-2 1.1-2.9 2.5-.7 1.2-1.3 2.5-1.7 4.1-.4 1.4-.5 2.4-.3 3.1.6.2 1.6.2 3.1 0 1.6-.2 3-.7 4.2-1.3 1.5-.7 2.4-1.6 2.7-2.7.4-1.3-.1-2.7-1.5-4.2zM47.8 54.2c-.2-1.8-.9-2.9-2.1-3.3-1-.3-2.2-.2-3.8.4-1.3.5-2.6 1.3-3.8 2.3-1.1.9-1.8 1.7-2 2.4.4.5 1.2 1.1 2.5 1.7 1.4.7 2.8 1.2 4.2 1.4 1.6.2 2.9 0 3.7-.7 1.1-.8 1.6-2.2 1.3-4.2z"/>
  </g>
</svg>
