<svg xmlns="http://www.w3.org/2000/svg" width="197" height="76" viewBox="0 0 197 76">
<style>
    @media (prefers-color-scheme: dark) {
      .knacss-text {
        fill: white;
      }
    }
  </style>
  <g fill="none" fill-rule="nonzero">
    <path fill="#d5d4d4" d="M17.2 71.7a37 37 0 0 0-10.5.8H5l-.3.2q-.2.4.1.6c.2.2 1.1.1 1.4-.1l.1-.1-.3.1-.7.3q-.2.2-.3.5 0 .4.5.5h.1l1.1-1-.3.9q-.2.3.1.5l.3.2.1-.1q.3-.1.2-.5v-.9l-.1-.7h.1c1.2.4 5.2.7 10.1.7 5.8 0 10.5-.5 10.5-1-.1-.5-4.7-.9-10.5-.9"/>
    <path fill="#9f2c1c" d="M6.4 68.3c-.1-.2-1.4-1.9-1.7-1.7q-.5.3-1.1.2-.7.2-1.4-.1-.7-.2-1.5.1c-.8.5-.6 1.8.3 2q.8 0 1.6-.2t1.6-.6q-1 .9-2.2 1.5c-.6.4-.8 1.3-.2 1.8s1.4.2 1.9-.3l1.7-2.1-.2 1.2-.5 1.4c-.2.8.5 1.5 1.2 1.4.9-.2 1-1.1 1-1.8q.1-1.5-.5-2.8M23.9 2.6a1 1 0 0 0-1.7.4q-.2.6-.1 1.4L21.9 6q-.3-1.4-.9-2.5c-.3-.6-.8-1.3-1.6-.9q-1 .6-.5 1.7l.9 1 .8 1.2a5 5 0 0 0-2.3-1.6c-.8-.2-1.9.2-1.6 1.2.3 1.1 1.6.9 2.4 1.2l.5.2c.2.1 3.2-.6 3.6-1.2l.7-1.1c.2-.8.6-1.9 0-2.6-.8-.7.8.8 0 0"/>
    <path class="knacss-text" fill="#2f2623" d="M67.1 20.3c-2.4-.3-5.2 0-7.5-.2C56.5 24.4 55 29 51.9 33l-.3.3-.1-13.1q-3.7-.1-7.4-.1c.1 12.8-.7 25.5-.1 38.1 1.9.5 6.1.6 8.1 0 0-4.1-.3-9.9-.2-14.2 2.3 4.1 4.6 10.8 7.7 14.3 2.4.1 5.3.3 7.7-.1l-9.5-19.6c2.6-6.1 7.6-12.2 9.3-18.3m25.2 17.1V19.9q-2.4-.3-4.2-.2c-1.4 0-2.3-.1-3.6.2-.1 1.8.1 9.7.1 12.6 0 1.2-.2 2.9-.4 3-.2 0-4.2-8.1-4.7-9.1-1.4-3-1.8-3.5-2.9-6.1 0-.3-6.4-.5-7.1-.3q-.6 7-.5 14.7l.2 19.8v3.8q2.5.1 5.3.3l2.4-.3.1-4.5c0-6.1.2-13.9.3-13.9s.5.8.7 1.6l.6 1.6c1.7 4.7 4.3 9.8 6.7 15.2l5.2.3q2 0 1.9-.3v-1.1l-.1-4.4.1-6.1v-9.4zm18.5-17.7-2.5.2.6-.5.7-.7c.6-.6 1.7-2.1 1.1-3s-1.8-.4-1.9.6l-.4 1.6-.2.5v-.2l-.3-2.2q-.1-.8-.7-1.2-1-.4-1.5.6-.2.7.2 1.1l1 2.1-.3-.5c-.5-.7-1.5-2-2.5-1.7-1.1.3-.9 1.7.1 2.1l1.5.7.8.6c-1.2 0-1.7-.1-2.3.1-5.3 17.5-8 36.8-8.4 38.3l.1.1c5-.1 7.1.2 7.7.1l.2-.1c1.3-2.4 1.5-6.9 2.4-9.1 1.6 0 1.6-.2 3.4 0 1 2.1 1.7 6.5 2.6 8.9h.1c2.4.4 5.1.8 7.5.3v-.1l-4.2-19.2zm-5.2 23c1.6-11.3 1.9-18.9 4.1 0zm22.8-13.4q1.1-.8 2.8-.8c4.3-.2 3.4 4.2 3.9 7q4 1 8.1.2c3.5-9.8-6.5-18.1-17.1-15.4a8 8 0 0 0-2.8 1.2 10 10 0 0 0-3 4.6 18 18 0 0 0-.8 5c-.4 12.1-.7 14.9.3 20.4 1.4 5.9 7.3 7.7 12.6 7 8.1-.2 13.3-8.1 10.8-15.3-2.1-.6-5.3-.1-7.4-.3-.4 1.7.1 3.6-.7 5.2-.7 1.5-2.3 2-3.9 1.9-2.2-.6-2.9-2.8-3.2-4.8a96 96 0 0 1 .4-15.9m36.8-7.9c-3.5-1.6-8.7-2-12.3-.6-7.1 2.9-10.5 12.9-3.7 19.3q1.6 1.4 3.8 1.9c3.1.6 7.4 1.1 7.9 4.6.9 5.1-7.2 5-7.5.3-2.5.1-5.6-.3-8.4.1v.3c-.4 7 6.6 11.1 13.1 11.3 4.6.2 8.9-1.8 10.7-6.3 1.7-3.8 1.7-8.5-.9-11.8a14 14 0 0 0-9.6-5.8c-1.6-.2-3-.6-3.6-2.3q-.2-.8 0-1.5c.6-4.1 7.8-2.7 6.9 1.3 2.6.7 5.7.4 8.3 0h.1c1-5.2-1.2-8.9-4.8-10.8m30.7 10.8c1.1-5.2-1.2-9-4.7-10.8-3.5-1.6-8.7-2-12.3-.6-7.1 2.9-10.5 12.9-3.7 19.3q1.6 1.4 3.8 1.9c3.1.6 7.4 1.1 7.9 4.6.9 5.1-7.1 5-7.4.3-2.5.1-6-.3-8.4.1v.3c-.4 7 6.5 11.1 12.9 11.3 4.6.2 8.8-1.8 10.6-6.3 1.7-3.8 1.7-8.5-.9-11.8a14 14 0 0 0-9.6-5.8c-1.6-.2-3-.6-3.6-2.3q-.2-.8 0-1.5c.6-4.1 7.8-2.7 6.9 1.3 2.8.8 5.9.4 8.5 0"/>
    <path fill="#cf381c" d="M30.8 10.6c-2.5-3.6-4-4.5-7.1-4.5-3.3 0-6.1 2-7.3 4.9 0 0-2.4 4.8 1.1 14.2 3.4 9.3-.6 15.9-2.1 18.5-1.3 2.1-6 6.9-8.6 9.5-3 3-4.8 8-3.6 10.5v.1a7.8 7.8 0 0 0 12.7 4 67 67 0 0 0 14.8-17 43 43 0 0 0 .1-40.2"/>
    <path fill="#e28576" d="M19 9.5c-2.6 1.5-2.8 5-2 7.6 1.1 2.9 4.3 2.3 5-.3l.7-4.4c.4-1.8-1.6-4.1-3.7-2.9m.2 10.3c-2.3.5-2.3 3.7-.2 3.7 1.1 0 2.1-.5 2.1-1.7-.1-1-.9-2-1.9-2"/>
    <path fill="#f4cfc9" d="M21.5 15.5c-.5 2-3 2.6-3.9.3-.6-1.9-.5-4.7 1.6-5.9 1.7-.9 3.2.8 2.9 2.2z"/>
    <path fill="#eeb5ac" d="M20.6 21.8c.1.8-.7 1.2-1.5 1.2-1.5 0-1.5-2.3.2-2.6q1.2.1 1.3 1.4"/>
    <path fill="#c1341c" d="m25.7 6.8-1.2.2v.3h1.2zm8.4 11.8v-.1h-.4v.4h.4zm1.1 5.5v-.4q-.2-.1-.3.1t.1.3zm0 8.7h.4v-.4h-.4zm0 3.4q-.1-.2-.4-.1v.3h.4zM11.4 69.4v-.3H11v.3zM22.5 6.8v.1q.2.1.4 0zm2.9 1.3.3-.1v-.3c-1.8 0-.7.6-1.7.4-.3-.5.1-.4-.6-.4-.2.2-.6.5-.3.8l.3.1v.8q.2.1.3-.1 0-.1.1-.3.5-.1.4.4h.3v.8q.3.2.4-.1-.1-.5.4-.4v-.4l-.1-.1h-.1l.6-.3h1.1v-.4h-1.6zm5.9 20.7h.8v-.6l-1.6-.5v.8h.8zm-.1 8.8v-.8h-.8q-.1-.2.1-.3t.3-.1v-.3H30v1.5q.5-.1.4.4.9-.4.8.5h1.1V38c-.7-.1.1-.4-1.1-.4M26.9 52h-1.2q.1-.5-.5-.5-.1-.5.4-.4 0-.2-.1-.3h-.8v.7q-.2 0-.3.1v.4h.8q0 .5.1.8l.3.1v.8h.4c.7-.7.9-.9.9-1.7m-4.4 4.2c-1.4 1.4-1.2-.4-1.2 1.4 1.3 0 2.4-1.2 2.2-1.9q.3.2.6-.1v-.4h-.8l-.1.2-.6-.2h-.1q-.5.3 0 1m4-43.3h.3l.1.4h.8v-.8h1.2l.5.8h.8q.1-.5-.5-.4v-.8q-.5-.1-.5.4h-.4q.1-.1-.1-.4h-1.1l-.1-.3q-.2-.2-.4.1v.7h-.8c.2-.1.2.3.2.3m5.3 14h.2l-.1-.3zm-.1.1-.2.2zM21.3 7.4v.3c.1 0 2.1.3 1.2-.8h-.3q-.1.8-.9.5m0 49q1-.2.8-1.1-.1-.2-.5-.1.1.5-.5.4c.2 0 .2.8.2.8m-6.4 9.1v-1.1h-.3v1.2zm8.7-12.3h-.3v.8h.8q0-.2-.1-.3l-.3-.1q0-.3-.1-.4m.9 1.2q0 .2.1.3h.8v-.8H25q-.1.5-.5.5m-5.6 6.7V60h-.3v1.2zm2.4-52.2h1.2v-.3q-.9-.4-1.2.3m11.5 16.4zl-.2.3h.3zm-9.5 29.4h.8v-.3h-.8zm9.1-25.5c.5.5.7-.5.4-.8h-.4zm-1.6 10H30v.4h.8zm0-.8H30v.3h.8zm-1.5 8.8v.8h.3v-.8zm-2.1 1.3h-.8v.3h.8q.2-.3 0-.3m1.3-32.9h.8v-.3q-.3-.3-.8 0zm-9.2 43.2H19v.8h.3zm8.4-9.2.3-.1v-.8q-.2 0-.3.1zm-9.6 10.7h-.3v.8h.3zm8.7-9.5q-.1-.1-.3.1v.7h.3zM32 40.5h-.8v.3h.8zm-1.2.3V40h-.3q-.2.6.3.8m2.8-22.4-.1.2h.1zM14.1 64.8h-.8v.3h.8zm15.2-22v.8h.3v-.8zm.8-.4-.3-.1.1-.1q.3.2.6.1V42l.8-.5q.1-.2-.1-.3h-1.1v-.7q-.2 0-.3-.1V40q-.1-.1-.3.1v.8q.2 0 .3.1v.8l-.8.5v.3h.8v.4h.4zm-1.3.4h-.4l.1.3q.2.1.3-.1 0 0 0-.2m1.7.8h.3v-.3q-.1-.2-.3.1zm-.5.4q.1-.2-.1-.3h-.3v.3q.3 0 .4 0m-1.6 0H28l.1.3q.1.1.3-.1 0 0 0-.2m-.8 3.6q-.1-.2-.3.1v.3h.3zm.4.4h-.3v.3q.1.2.3-.1zm-1.9 1.1h.3v-.3H26zm1.1.1h-.3v.3h.3q.2-.2 0-.3m-1.5.4v.3h.4q.2-.2-.1-.3zm1.1.4v-.3h-.3q-.2.2.1.3zm-1.5.4h.3V50h-.3q0 .3 0 .4m1.6 0v.3h.3q.2-.2-.1-.3zm-6-42.3q.1.1.3-.1v-.3h-.4zm3.6 44.3V52h-.3q-.2.2.1.3h.2zm.3.4q-.1-.1-.3.1v.3q.2 0 .4-.1zm1.7-43.5h-.3v.3h.4c-.1.1-.1-.3-.1-.3m.7 0q-.2 0-.3.1t.1.3h.3q0-.2-.1-.4m-2.7 44.3v.3h.3v-.3zm.8.3h.4v-.4h-.4zm.4-43.8h.3v-.4h-.4zm-3.2 44.7q-.2-.1-.3.1v.3l.1.1q.2.2.3-.1zm.4 0v.4l.1.1q.2.2.3-.1v-.4zm2-44.2v.3h.3v-.4zm1.2.3h.3v-.4q-.2 0-.3.1zm0 1.6h.4v-.4h-.4zm2.3.8q-.1-.1-.3.1v.3l.1.1q.1.2.3-.1zm-7.5 43.1q-.1.2.1.3h.3l.1-.1q.2-.2-.1-.3zm7.2-40.2v.3h.3v-.3q-.1-.2-.3 0m-7.2 41.3v-.4l-.3.1q-.1.2.1.3 0 0 .2 0m1.2 0v.4h.4l.1-.1q0-.5-.5-.3m-2 .8h.3q0-.3-.1-.3-.2-.1-.3.1zm1.2-.4-.4.1q-.1.2.1.3h.3q0-.2 0-.4m1.2.4q-.2-.1-.3.1t.1.3h.3zm-1.6.8h.3v-.3q-.2-.2-.3.1zm-3.9 2q.1.1.3-.1v-.3q-.2 0-.4.1zm1.9.8q.1-.2-.1-.3t-.3.1v.3l.1.1zm14-35.8q.2.1.3-.1v-.3h-.4zm-.4.7h.3q.2-.1-.1-.3h-.3zm-.4.4q.1.1.3-.1v-.3H32zm-.1 2.4.1.1q.4.1.3-.5H32zM12.9 64.7q-.1-.1-.3.1v.3h.4zm-.4.8v-.3h-.3v.3zm.5 0q.1.1.3-.1v-.3h-.4zm-7.6.9v.3h.3v-.3zm.4.7.3-.1v-.3h-.3zm.8-.3v.3h.3v-.3zM32.1 34h.3q.2-.2-.1-.3H32zm.7 3.6q-.2-.1-.3.1v.3h.4zm1.6.5v.4l.3-.1q.1-.1-.1-.3.1 0-.2 0m-4.7.8q-.1.2.1.3h.2v-.4zm.4.7h-.4v.4h.4zm5.3-5.2h-.2v.4q.3 0 .2-.4m-4.8-23.6-.1.1zm-1.3-1.6-.1.1h.1q0-.1 0-.1M14.9 63.7h-.7v.3h1.2v.8q.5.1.5-.4h.7v.3h.2l-.3.3v-.2q-.1-.1-.3.1t.1.3h.1l-.6.5v-.1h-.4v.4l-.5.4h-.3l-.1.3-.2.1h-.2V66q.2 0 .3-.1v-.3h-.8q0 .5-.1.8-.5.1-.5-.4-.5 0-.3.3-.1.2-.3-.1V66q-.5-.1-.4.5h-1.2q.2 1 1.2.4c0 .9.3.2.5 0q1 0 1.2.4l-.5.3v-.3h-.7q-.1.2 0 .4h.6l-.5.2c-.5-.8-3.2-1.2-3-1.1q-.4.2-.7.5c-.1.6.4.1.4 1.1q.3.2.4-.1v-.7h1.2v.4q.5.1.5-.4.1 0 .3.1v.6l-.8.2V68h-.8q-.2.3.1.4.1 0 .3.1l-.6.1-1.4-.1q0-.5-.1-1.1-.2 0-.3.1l-.1.8q-.7 0-.4-.8h-.7v.5c.5.5 1.5 1.7 2.4 1.1l-.7-.7 1.9.5v.3h.3v-.3h.2l1.1-.1-.1.4h.8v-.5q1.5-.3 2.6-1.4l.1-.1 1.1-.8h.7v-.8l3.5-3.4h.1l.1-.1-.1.5q.4 0 .4-.4-.3-.3-.3-.1l1.2-1.2.3-.3v-.1l.2-.2h.2v-.2l.2-.2.2-.1v-.2l.8-1v.3h.3v-.8l2.3-2.8.5-.1v-.3H27l.2-.3v.3h.4v-.4h-.3l.6-.8.6-.5v-.3l.8-1.2.1.1q.1.1.3-.1v-.3h-.2q.4-.5.6-1.1l.1-.2.2-.1q.1-.2-.1-.3l1-2q.2.2.2-.1v-.3h-.1l.2-.4.3-.1v-.7l.3-.9.1-.1.1-.2.2-.6h.2q-.1-.5.4-.4v-.3h-.3l.8-2.8q.2.1.3-.1-.1-.5.4-.5v-.3h-.3l.1-.6v.1h.3v-.8h-.2l.3-2h.3v-.8h-.2l.1-.8.1-.1v-.3h.4v-.4H35l.2-2.8h.5V31h-.5l.1-1.2.1.1q0 .3.1.8h.4v-1.2h-.5v-.8l.1-.1v-.1l-.1-.1v-.1l.6.1-.1-.5h-.4l-.1.2q0-1.9-.3-3.7.2-.2-.1-.5h-.1q-.7-5.3-2.9-10.1l.1-.2q-.1 0-.2 0l-.6-1.2.1-.1v-.7l-.5.2-.4-.8-.1-.1-.1-.2.2-.1v-.3H30v.7l-.1-.1h.1v-.3h-.3q-1-1.3-1.7-1.9v-.2h-.2l-.2-.1v-.3q-.5.1-.5-.5h-.3v.2l-1-.3 1 .7v.2h.2l1.9 2.4h-1v-.7h-.3q.1.5-.5.5v.3c.6.1.5.6.8.8h.8q0-.2.1-.3h.3v-.1l.1.1h-.1v.4l.2.1.9 1.8v.2q-1.4-.8-2 .1-.3 1 .7.8c.8-.2 1.4.1 1.7-.1l.1.2q-.3 0-.6.4c-.3-1.4-.6.5-.6 1.7h-.1v.4H29v-1.2q-.5-.1-.5.5h-.3v1.2l1.1.5.5-.7.8-1.4.3-.6.1-.1v-.1q1.4 3.5 2 7.1l-.1.1v.3h.1l.1.8H33l-.2.7v.1h.4l.1.4h-.4v.8h.4v-.7l.2 2.6-.3-.3q-.5-.1-.3.4h-1.7l.7.5h.7v.3q.6.4 1.1-.3.4 1 .3 2.3h-.2l.2.5-.1.6h-.3l-.1.2-.1-.1c.2.1.2-.5.2-.6h-.4c0-1.4-.9-1.6-1.7-1.2q-.2 0-.3-.1v-.7q-.5.1-.5-.5h-.3v.8l.3.1.5.7 1.2-.1.1 1.1H32V31h-.5v.7h-.8V31h-.3v1.5h.3q.1.2-.1.3t-.3.1v1.5q.5-.1.4.4h1.6q.1-.5-.4-.5V34l-.5.1.1-.1q.1-.2-.1-.3-.1-.1-.3.1v.3l.1.1.1.1-.5-.1v-.7q.4 0 .8-.1c-.1-.5-.4-.2-.4-.8h.4c0 .8.1.5.1 0h1.5v.2h-.8v.3q.3 0 .8.1v.8q-.3 0-.4 0v.8l.8-.3-.2 2h-.2v-1.2q-.3 0-.3.1l-.1.6h-.3q.2-.1-.1-.4h-.7l-.1-.3h-1.2q0 .2.1.4h.7q0 .4.1.8h.3v.8h.3q0-.2.1-.3h.3l.1.4h.8l-.2.8h-.2v.7q-.5-.1-.5.5-.2.1-.3-.1t0-.4h-.8q0 .2.1.3l.3.1q0 .3.1.8h.7q0 .3.1.8l-.2.8h-.6c-.1.6-.6.5-.8.8q0 .2.1.3h.8q0-.2.1-.3l.4-.2-.5 1.5v-.1H31q-.1.2.1.3h.6l-.3.8q0-.2-.1-.3h-1.5v-.3q-.1-.1-.3.1v.7q.5-.1.5.4h.3l-.5.8h-.3l-.5-.8h-.3q.1-.2-.1-.3-.1-.1-.3.1v.3h-.4v.8q-.2-.1-.4.1v1.1h.8l.1-.3q.2-.2.4.1v.7h.3v-1.2q.5.1.8.5v.3l.7-.2-.3.6h-.1l-.2-.2-.3.7h-1.3q.7 1.5-.4 1.6-.1.5.4.4v.3q-.3-.1-.8 0v.3l.3.1q0 .2 0 .2h-.7v.8h.2l-.3.4h-.3q-.2.3.1.5l-.2.3q-.4-.2-.6.1v.3l.3.1-1.1 1.5-.1-.2q-.2-.1-.3.1v.3l.1.1.2.1-.6.8v-.1q-.7-.1-.5.6l-.1.1q-.1-.4-.7.2c-.2.2.1.4 0 .6q-1 .5-.6.8l-.1.2-.1.1V59l-.5.3h-.9q-.1.1.1.4h.5l-.5.6-.1-.2h-.3v.3h.2l-.2.2v-.2h-.4v-1.2h-.8v.5l-.4-.1v1.5l.4.1v.6l-.2.2q-.5-.1-.9.1l-.6-.1q.1-.2-.1-.3h-1.2q0 .4.1.8.5.1.3-.4h.8q-.1.3.1.8h.3l.2-.3.1.2v.1l-1.9 1.9v-.6h.4v-.4q-.2-.3.1-.4.1-.2-.1-.3t-.8-.1v-1.2l-.8.5.3.3v.4l.6.6-.2.2-.3-.3h-.4l.4.4-.3.3h-.8zM33.7 34v-.8h.1zm-4.4 14.7h.3l-.5 1-.2-.2zm5.9-19.1q.2.2.3-.1v-.3h-.3zM24.5 7.8v-.4q-.4-.1-.8.1v.3l.1.1zM23.2 7h-.3l-.1.1q-.2.3.1.7.2.1.4 0 0-.5-.1-.8"/>
    <path fill="#c1341c" d="m31.3 27.8-1.5-1 .1-.2-1.5-1-.2.2-1.5-1 .1-.2-1.5-1v.1l-.1.2-1.1-.7c1.4 1.3 4.5 3.5 5.3 4l.9.5q1 .5 1.6.5l.3.1-.3-.2-.7-.5-.1-.1q.4.2.2.3"/>
    <path class="knacss-text" fill="#2f1815" d="M41.8.3a2.5 2.5 0 0 0-3.4 1.2l-.4.8-1.1 2.2-1.5 3-.9 1.7-.9 1.7-2.3 4.5c-.1.2-1.6 2.9-2.1 3s-3 .6-3.5 1.5l-.1.2-1.6 2.8-.1.1 1.5 1 .1-.2.6-1q.5-.7 1.2-.4.6.4.3 1.3l-.6 1-.1.3 1.5 1 .2-.3.6-1q.5-.7 1.2-.4.6.4.3 1.3l-.6 1-.2.5 1.5 1 .3-.5 1.6-2.8.1-.1v-.1c.5-.9-.5-3.2-.5-3.8-.1-.4.9-2.3 1.4-2.9l2.9-4.7 1.1-1.7 1.1-1.6L41.3 7l1.4-2 .5-.7q-.3-.4-.1-.6c.5-1.2-.1-2.8-1.3-3.4"/>
  </g>
</svg>
